<svg height="387" viewBox="0 0 403.511161 387" width="403.511161" xmlns="http://www.w3.org/2000/svg"><path d="m211.045337 0c83.943402 0 156.440209 44.9343398 190.43853 110.000097l-64.482966-.002154c-28.238956-35.7456744-74.135613-58.997943-125.955564-58.997943-85.83664 0-155.4209847 63.799423-155.4209847 142.5s69.5843447 142.5 155.4209847 142.5c53.728077 0 101.088611-24.996196 129.002617-62.996931l63.463207.000268c-33.080101 67.215119-106.814386 113.996663-192.465824 113.996663-116.5571212 0-211.045337-86.632901-211.045337-193.5 0-106.8670991 94.4882158-193.5 211.045337-193.5zm125.71572 164-32.21572 50h-216.0000002v-50z" fill="#fff" fill-rule="evenodd"/></svg>