<svg fill="none" height="160" viewBox="0 0 256 160" width="256" xmlns="http://www.w3.org/2000/svg" xmlns:xlink="http://www.w3.org/1999/xlink"><linearGradient id="a" x1="0%" x2="0%" y1="100%" y2="0%"><stop offset="0" stop-color="#1e293b" stop-opacity=".9"/><stop offset=".5" stop-color="#334155" stop-opacity=".7"/><stop offset="1" stop-color="#64748b" stop-opacity=".5"/></linearGradient><path d="m0 0h256v160h-256z" fill="#0a0a0a"/><g stroke="#0ff"><path d="m60 70h136v40h-136z" fill="url(#a)" stroke-width="2"/><path d="m80 50h20v20h-20z" fill="url(#a)"/><path d="m110 45h36v25h-36z" fill="url(#a)"/><path d="m156 55h20v15h-20z" fill="url(#a)"/><ellipse cx="80" cy="115" fill="#64748b" rx="12" ry="6"/><ellipse cx="110" cy="115" fill="#64748b" rx="12" ry="6"/><ellipse cx="146" cy="115" fill="#64748b" rx="12" ry="6"/><ellipse cx="176" cy="115" fill="#64748b" rx="12" ry="6"/></g><circle cx="128" cy="85" fill="#0ff" opacity=".8" r="8"/><circle cx="128" cy="85" fill="none" opacity=".5" r="12" stroke="#0ff"/><path d="m50 70q78-40 156 0" fill="none" opacity=".3" stroke="#0ff"/><text fill="#0ff" font-family="monospace" font-size="12" font-weight="bold" text-anchor="middle" x="128" y="140">NOMADIC CITY</text><text fill="#fff" font-family="monospace" font-size="10" opacity=".7" text-anchor="middle" x="128" y="155">移动城邦</text></svg>