<svg fill="none" height="160" viewBox="0 0 256 160" width="256" xmlns="http://www.w3.org/2000/svg" xmlns:xlink="http://www.w3.org/1999/xlink"><linearGradient id="a" x1="0%" x2="0%" y1="100%" y2="0%"><stop offset="0" stop-color="#f44" stop-opacity=".9"/><stop offset=".5" stop-color="#f80" stop-opacity=".7"/><stop offset="1" stop-color="#fa0" stop-opacity=".5"/></linearGradient><path d="m0 0h256v160h-256z" fill="#0a0a0a"/><g stroke-width="2"><path d="m128 30 22 20v30l-22 20-22-20v-30z" fill="url(#a)" stroke="#f44"/><path d="m110 70q5-10 10 0 5-15 10 0 5-10 10 0 5-15 10 0" fill="none" opacity=".8" stroke="#f80"/><path d="m115 85q5-10 10 0 5-15 10 0 5-10 10 0" fill="none" opacity=".6" stroke="#fa0"/></g><path d="m90 60 10-10-5 20z" fill="#f44" opacity=".7"/><path d="m166 60-10-10 5 20z" fill="#f44" opacity=".7"/><path d="m115 110 10-10-5 20z" fill="#f80" opacity=".6"/><path d="m141 110-10-10 5 20z" fill="#f80" opacity=".6"/><text fill="#f44" font-family="monospace" font-size="14" font-weight="bold" text-anchor="middle" x="128" y="140">REUNION</text><text fill="#fff" font-family="monospace" font-size="10" opacity=".7" text-anchor="middle" x="128" y="155">整合运动</text></svg>