<svg xmlns="http://www.w3.org/2000/svg" style="display: none;">
  <defs>
    <!-- Arknights Logo -->
    <g id="svg_def-title_arknights">
      <text x="0" y="60" font-family="Arial, sans-serif" font-size="48" font-weight="bold" fill="currentColor">
        ARKNIGHTS
      </text>
    </g>
    
    <!-- Rhodes Island Logo -->
    <g id="svg_def-logo_rhodes_island">
      <circle cx="229.55" cy="187.2" r="180" fill="none" stroke="currentColor" stroke-width="4"/>
      <polygon points="229.55,50 180,150 279.1,150" fill="currentColor"/>
      <rect x="200" y="200" width="59.1" height="59.1" fill="currentColor"/>
    </g>
    
    <!-- Arrow Icon -->
    <g id="svg_def-icon_arrow">
      <path d="M1 1 L6 7.5 L1 14" fill="none" stroke="currentColor" stroke-width="2" stroke-linecap="round" stroke-linejoin="round"/>
    </g>
    
    <!-- Social Icon -->
    <g id="svg_def-icon_social">
      <circle cx="13.5" cy="8" r="6" fill="none" stroke="currentColor" stroke-width="2"/>
      <circle cx="13.5" cy="25" r="6" fill="none" stroke="currentColor" stroke-width="2"/>
      <line x1="7.5" y1="8" x2="19.5" y2="8" stroke="currentColor" stroke-width="2"/>
      <line x1="7.5" y1="25" x2="19.5" y2="25" stroke="currentColor" stroke-width="2"/>
    </g>
    
    <!-- Sound Icon -->
    <g id="svg_def-icon_sound">
      <path d="M8 6v22l8-6V12l-8-6z" fill="currentColor"/>
      <path d="M20 9v16M24 11v12" stroke="currentColor" stroke-width="2" stroke-linecap="round"/>
    </g>
    
    <!-- User Icon -->
    <g id="svg_def-icon_user">
      <circle cx="14" cy="10" r="6" fill="none" stroke="currentColor" stroke-width="2"/>
      <path d="M4 30v-4a8 8 0 0 1 8-8h8a8 8 0 0 1 8 8v4" fill="none" stroke="currentColor" stroke-width="2"/>
    </g>
  </defs>
</svg>
